# xmcd CD database file
#
# Track frame offsets:
#	150
#	11436
#	24328
#	34539
#	46391
#	58550
#	70403
#	80861
#	91699
#	104501
#	114769
#	126393
#	138189
#	152296
#	164753
#	181563
#	194231
#	213491
#	225232
#	235794
#	251591
#	262660
#	274823
#	293950
#
# Disc length: 4143 seconds
#
# Revision: 0
# Processed by: cddbd v1.5PL3 Copyright (c) Steve Scherf et al.
# Submitted via: CDex 1.50
#
DISCID=41102d18
DTITLE=Chris Connor - Miss You So/Witchcraft
DYEAR=1900
DGENRE=Jazz
TTITLE0=I Miss You So
TTITLE1=Go 'Way From My Window
TTITLE2=Trust In Me
TTITLE3=Past the Age of Innocence
TTITLE4=Time Out for Tears
TTITLE5=I Love You Yes I Do
TTITLE6=My Heart is so Full of You
TTITLE7=My Ideal
TTITLE8=Mixed Emotions
TTITLE9=They All Laughed
TTITLE10=Speak Low
TTITLE11=Radar Blues
TTITLE12=Witchcraft
TTITLE13=I'll Never Be Free
TTITLE14=The Lady Sings the Blues
TTITLE15=Come Rain or Come Shine
TTITLE16=When Sunny Gets Blue
TTITLE17=How Little We Know
TTITLE18=I Hear the Music Now
TTITLE19=Baltimore Oriole
TTITLE20=Just in Time
TTITLE21=Like a Woman
TTITLE22=Skyscraper Blues
TTITLE23=You Don't Know What Love Is
EXTD=
EXTT0=
EXTT1=
EXTT2=
EXTT3=
EXTT4=
EXTT5=
EXTT6=
EXTT7=
EXTT8=
EXTT9=
EXTT10=
EXTT11=
EXTT12=
EXTT13=
EXTT14=
EXTT15=
EXTT16=
EXTT17=
EXTT18=
EXTT19=
EXTT20=
EXTT21=
EXTT22=
EXTT23=
PLAYORDER=
